<?xml version="1.0" encoding="UTF-8" standalone="no"?>
<!-- Generator: Adobe Illustrator 18.1.1, SVG Export Plug-In . SVG Version: 6.00 Build 0)  -->

<svg
   xmlns:dc="http://purl.org/dc/elements/1.1/"
   xmlns:cc="http://creativecommons.org/ns#"
   xmlns:rdf="http://www.w3.org/1999/02/22-rdf-syntax-ns#"
   xmlns:svg="http://www.w3.org/2000/svg"
   xmlns="http://www.w3.org/2000/svg"
   xmlns:sodipodi="http://sodipodi.sourceforge.net/DTD/sodipodi-0.dtd"
   xmlns:inkscape="http://www.inkscape.org/namespaces/inkscape"
   version="1.1"
   id="Capa_1"
   x="0px"
   y="0px"
   viewBox="0 0 450 612"
   xml:space="preserve"
   inkscape:version="0.91 r13725"
   sodipodi:docname="default_profile.svg"
   width="450"
   height="612"><metadata
     id="metadata45"><rdf:RDF><cc:Work
         rdf:about=""><dc:format>image/svg+xml</dc:format><dc:type
           rdf:resource="http://purl.org/dc/dcmitype/StillImage" /><dc:title></dc:title></cc:Work></rdf:RDF></metadata><defs
     id="defs43" /><sodipodi:namedview
     pagecolor="#ffffff"
     bordercolor="#666666"
     borderopacity="1"
     objecttolerance="10"
     gridtolerance="10"
     guidetolerance="10"
     inkscape:pageopacity="0"
     inkscape:pageshadow="2"
     inkscape:window-width="1920"
     inkscape:window-height="1027"
     id="namedview41"
     showgrid="false"
     inkscape:zoom="0.13633759"
     inkscape:cx="-2627.3718"
     inkscape:cy="714.85758"
     inkscape:window-x="0"
     inkscape:window-y="0"
     inkscape:window-maximized="1"
     inkscape:current-layer="Capa_1" /><g
     id="g3"
     transform="matrix(0.9169969,0,0,1,-55.227599,0.22246311)"
     style="fill:#001c00;fill-opacity:1"><g
       id="g5"
       style="fill:#001c00;fill-opacity:1"><path
         d="m 550.981,541.908 c -0.99,-28.904 -4.377,-57.939 -9.421,-86.393 -6.111,-34.469 -16.63953,-186.77144 -46.73353,-209.23444 -17.404,-12.988 -39.941,-17.249 -59.865,-25.081 -9.697,-3.81 -18.384,-7.594 -26.537,-11.901 -27.518,30.176 -63.4,45.962 -105.186,45.964 -41.774,0 -77.652,-15.786 -105.167,-45.964 -8.153,4.308 -16.84,8.093 -26.537,11.901 -19.924,7.832 -42.461,12.092 -59.863,25.081 C 81.575474,268.74356 76.549,421.046 70.439,455.515 c -5.045,28.454 -8.433,57.489 -9.422,86.393 -0.766,22.387 10.288,25.525 29.017,32.284 23.453,8.458 47.666,14.737 72.041,19.884 47.077,9.941 95.603,17.582 143.921,17.924 48.318,-0.343 96.844,-7.983 143.921,-17.924 24.375,-5.145 48.59,-11.424 72.041,-19.884 18.736,-6.757 29.789,-9.895 29.023,-32.284 z"
         id="path9"
         inkscape:connector-curvature="0"
         sodipodi:nodetypes="ccccccccccscscccc"
         style="fill:#001c00;fill-opacity:1" /></g></g><g
     id="g11" /><g
     id="g13" /><g
     id="g15" /><g
     id="g17" /><g
     id="g19" /><g
     id="g21" /><g
     id="g23" /><g
     id="g25" /><g
     id="g27" /><g
     id="g29" /><g
     id="g31" /><g
     id="g33" /><g
     id="g35" /><g
     id="g37" /><g
     id="g39" /><g
     id="g4239"
     transform="matrix(1.0409091,0,0,1.0404858,-92.591828,-5.9474569)"><ellipse
       ry="113.22997"
       rx="100.8526"
       cy="126.53224"
       cx="299.80728"
       id="path4175"
       style="fill:#005b00;fill-opacity:1" /><path
       id="path4175-5"
       d="m 219.29783,59.47777 a 100.8526,113.22997 0 0 0 -19.6582,66.95312 100.8526,113.22997 0 0 0 100.85156,113.22852 100.8526,113.22997 0 0 0 88.6875,-59.36133 100.8526,113.22997 0 0 1 -81.19726,46.2832 100.8526,113.22997 0 0 1 -100.85352,-113.23047 100.8526,113.22997 0 0 1 12.16992,-53.87304 z"
       style="fill:#004b00;fill-opacity:1"
       inkscape:connector-curvature="0" /></g></svg>